HIERARCHY
ROOT Hip
{
	OFFSET	0.0000	0.0000	0.0000
	CHANNELS 6 Xposition Yposition Zposition Xrotation Yrotation Zrotation
	JOINT LowerSpine
	{
		OFFSET	0.0000	9.4957	-5.1386
		CHANNELS 3 Xrotation Yrotation Zrotation
		JOINT MiddleSpine
		{
			OFFSET	0.0000	8.6656	0.4527
			CHANNELS 3 Xrotation Yrotation Zrotation
			JOINT Chest
			{
				OFFSET	0.0000	10.7227	-2.3868
				CHANNELS 3 Xrotation Yrotation Zrotation
				JOINT Neck
				{
					OFFSET	0.0000	24.1631	-0.5025
					CHANNELS 3 Xrotation Yrotation Zrotation
					JOINT Head
					{
						OFFSET	0.0000	13.6452	3.7115
						CHANNELS 3 Xrotation Yrotation Zrotation
						End Site
						{
							OFFSET	0.0001	19.0659	0.5692
						}
					}
				}
				JOINT LClavicle
				{
					OFFSET	2.4395	23.3186	7.9891
					CHANNELS 3 Xrotation Yrotation Zrotation
					JOINT LShoulder
					{
						OFFSET	14.2517	3.3448	-5.4121
						CHANNELS 3 Xrotation Yrotation Zrotation
						JOINT LForearm
						{
							OFFSET	30.2735	-0.1075	-0.2623
							CHANNELS 3 Xrotation Yrotation Zrotation
							JOINT LHand
							{
								OFFSET	25.2545	0.0733	-0.1512
								CHANNELS 3 Xrotation Yrotation Zrotation
								JOINT LFinger1
								{
									OFFSET	9.7879	0.8560	2.7185
									CHANNELS 3 Xrotation Yrotation Zrotation
									JOINT LFinger11
									{
										OFFSET	3.6612	-0.8928	0.6451
										CHANNELS 3 Xrotation Yrotation Zrotation
										JOINT LFinger12
										{
											OFFSET	2.4994	-0.6097	0.4406
											CHANNELS 3 Xrotation Yrotation Zrotation
											End Site
											{
												OFFSET	1.7786	-0.5309	0.2885
											}
										}
									}
								}
								JOINT LFinger2
								{
									OFFSET	9.9340	0.9885	0.2367
									CHANNELS 3 Xrotation Yrotation Zrotation
									JOINT LFinger21
									{
										OFFSET	4.5268	0.0126	-0.0267
										CHANNELS 3 Xrotation Yrotation Zrotation
										JOINT LFinger22
										{
											OFFSET	2.5091	0.0076	-0.0153
											CHANNELS 3 Xrotation Yrotation Zrotation
											End Site
											{
												OFFSET	2.2537	-0.1591	0.0030
											}
										}
									}
								}
								JOINT LFinger3
								{
									OFFSET	9.4145	0.6596	-2.2272
									CHANNELS 3 Xrotation Yrotation Zrotation
									JOINT LFinger31
									{
										OFFSET	4.1076	-0.2080	-0.2572
										CHANNELS 3 Xrotation Yrotation Zrotation
										JOINT LFinger32
										{
											OFFSET	2.3407	-0.1177	-0.1471
											CHANNELS 3 Xrotation Yrotation Zrotation
											End Site
											{
												OFFSET	2.0696	-0.2545	-0.0978
											}
										}
									}
								}
								JOINT LFinger4
								{
									OFFSET	8.7363	-0.6640	-3.8466
									CHANNELS 3 Xrotation Yrotation Zrotation
									JOINT LFinger41
									{
										OFFSET	2.5266	-0.5269	-0.6974
										CHANNELS 3 Xrotation Yrotation Zrotation
										JOINT LFinger42
										{
											OFFSET	1.8527	-0.3859	-0.5118
											CHANNELS 3 Xrotation Yrotation Zrotation
											End Site
											{
												OFFSET	1.6445	-0.4518	-0.3773
											}
										}
									}
								}
								JOINT LFinger0
								{
									OFFSET	2.0247	-1.5325	1.5349
									CHANNELS 3 Xrotation Yrotation Zrotation
									JOINT LFinger01
									{
										OFFSET	3.7698	-1.2382	2.8423
										CHANNELS 3 Xrotation Yrotation Zrotation
										JOINT LFinger02
										{
											OFFSET	2.4824	-0.8882	1.7885
											CHANNELS 3 Xrotation Yrotation Zrotation
											End Site
											{
												OFFSET	1.8254	-0.6284	1.2500
											}
										}
									}
								}
							}
						}
					}
				}
				JOINT RClavicle
				{
					OFFSET	-2.4395	23.3186	7.9891
					CHANNELS 3 Xrotation Yrotation Zrotation
					JOINT RShoulder
					{
						OFFSET	-14.2542	3.3453	-5.4130
						CHANNELS 3 Xrotation Yrotation Zrotation
						JOINT RForearm
						{
							OFFSET	-30.2735	-0.1075	-0.2623
							CHANNELS 3 Xrotation Yrotation Zrotation
							JOINT RHand
							{
								OFFSET	-25.2545	0.0733	-0.1512
								CHANNELS 3 Xrotation Yrotation Zrotation
								JOINT RFinger1
								{
									OFFSET	-9.7879	0.8560	2.7185
									CHANNELS 3 Xrotation Yrotation Zrotation
									JOINT RFinger11
									{
										OFFSET	-3.6612	-0.8928	0.6451
										CHANNELS 3 Xrotation Yrotation Zrotation
										JOINT RFinger12
										{
											OFFSET	-2.4994	-0.6097	0.4406
											CHANNELS 3 Xrotation Yrotation Zrotation
											End Site
											{
												OFFSET	-1.7786	-0.5309	0.2885
											}
										}
									}
								}
								JOINT RFinger2
								{
									OFFSET	-9.9340	0.9885	0.2367
									CHANNELS 3 Xrotation Yrotation Zrotation
									JOINT RFinger21
									{
										OFFSET	-4.5268	0.0126	-0.0267
										CHANNELS 3 Xrotation Yrotation Zrotation
										JOINT RFinger22
										{
											OFFSET	-2.5091	0.0076	-0.0153
											CHANNELS 3 Xrotation Yrotation Zrotation
											End Site
											{
												OFFSET	-2.2537	-0.1591	0.0030
											}
										}
									}
								}
								JOINT RFinger3
								{
									OFFSET	-9.4145	0.6596	-2.2272
									CHANNELS 3 Xrotation Yrotation Zrotation
									JOINT RFinger31
									{
										OFFSET	-4.1076	-0.2080	-0.2572
										CHANNELS 3 Xrotation Yrotation Zrotation
										JOINT RFinger32
										{
											OFFSET	-2.3407	-0.1177	-0.1471
											CHANNELS 3 Xrotation Yrotation Zrotation
											End Site
											{
												OFFSET	-2.0696	-0.2544	-0.0978
											}
										}
									}
								}
								JOINT RFinger4
								{
									OFFSET	-8.7363	-0.6639	-3.8466
									CHANNELS 3 Xrotation Yrotation Zrotation
									JOINT RFinger41
									{
										OFFSET	-2.5266	-0.5269	-0.6974
										CHANNELS 3 Xrotation Yrotation Zrotation
										JOINT RFinger42
										{
											OFFSET	-1.8527	-0.3859	-0.5118
											CHANNELS 3 Xrotation Yrotation Zrotation
											End Site
											{
												OFFSET	-1.6445	-0.4518	-0.3773
											}
										}
									}
								}
								JOINT RFinger0
								{
									OFFSET	-2.0247	-1.5325	1.5349
									CHANNELS 3 Xrotation Yrotation Zrotation
									JOINT RFinger01
									{
										OFFSET	-3.7698	-1.2382	2.8423
										CHANNELS 3 Xrotation Yrotation Zrotation
										JOINT RFinger02
										{
											OFFSET	-2.4824	-0.8882	1.7885
											CHANNELS 3 Xrotation Yrotation Zrotation
											End Site
											{
												OFFSET	-1.8254	-0.6284	1.2500
											}
										}
									}
								}
							}
						}
					}
				}
			}
		}
	}
	JOINT RThigh
	{
		OFFSET	-10.1581	4.2924	-0.8373
		CHANNELS 3 Xrotation Yrotation Zrotation
		JOINT RShin
		{
			OFFSET	-0.8128	-44.1831	0.0000
			CHANNELS 3 Xrotation Yrotation Zrotation
			JOINT RFoot
			{
				OFFSET	0.0000	-43.3851	0.0000
				CHANNELS 3 Xrotation Yrotation Zrotation
				JOINT RToe
				{
					OFFSET	0.0000	-4.7684	9.9714
					CHANNELS 3 Xrotation Yrotation Zrotation
					End Site
					{
						OFFSET	0.0000	0.0000	6.6894
					}
				}
			}
		}
	}
	JOINT LThigh
	{
		OFFSET	10.1580	4.2927	-0.8373
		CHANNELS 3 Xrotation Yrotation Zrotation
		JOINT LShin
		{
			OFFSET	0.8129	-44.1834	0.0000
			CHANNELS 3 Xrotation Yrotation Zrotation
			JOINT LFoot
			{
				OFFSET	0.0000	-43.3851	0.0000
				CHANNELS 3 Xrotation Yrotation Zrotation
				JOINT LToe
				{
					OFFSET	0.0000	-4.7684	9.9714
					CHANNELS 3 Xrotation Yrotation Zrotation
					End Site
					{
						OFFSET	0.0000	0.0000	6.6894
					}
				}
			}
		}
	}
}
MOTION
Frames:	5
Frame Time: 0.0333333000
	-15.3949	90.8469	88.0353	-6.486926	-2.498276	-3.105243	0.000000	0.000000	0.000000	1.409236	1.946434	1.673794	4.486740	6.638330	5.407223	0.000000	0.000000	0.000000	0.000000	0.000000	0.000000	0.000000	0.000000	-4.769683	-29.163300	-5.033987	-24.095010	-12.570540	-14.174230	7.831652	0.000000	0.000000	0.000000	0.000000	0.000000	0.000000	0.000000	0.000000	0.000000	0.000000	0.000000	0.000000	0.000000	0.000000	0.000000	0.000000	0.000000	0.000000	0.000000	0.000000	0.000000	0.000000	0.000000	0.000000	0.000000	0.000000	0.000000	0.000000	0.000000	0.000000	0.000000	0.000000	0.000000	0.000000	0.000000	0.000000	0.000000	0.000000	0.000000	0.000000	0.000000	0.000000	0.000000	0.000000	0.000000	0.000000	0.000000	0.000000	0.000000	0.000000	2.906034	-30.589940	-1.425457	12.087140	-12.576060	17.405520	-4.542007	0.000000	0.000000	0.000000	0.000000	0.000000	0.000000	0.000000	0.000000	0.000000	0.000000	0.000000	0.000000	0.000000	0.000000	0.000000	0.000000	0.000000	0.000000	0.000000	0.000000	0.000000	0.000000	0.000000	0.000000	0.000000	0.000000	0.000000	0.000000	0.000000	0.000000	0.000000	0.000000	0.000000	0.000000	0.000000	0.000000	0.000000	0.000000	0.000000	0.000000	0.000000	0.000000	0.000000	0.000000	0.000000	0.000000	0.000000	0.000000	9.179500	8.068079	3.582525	9.787317	7.662565	-1.335495	-1.693571	-2.671763	-1.326483	-0.289376	0.000000	0.000000	8.543610	0.854496	2.365945	9.708810	0.691445	-0.103682	-8.581397	8.822333	5.069643	0.000000	0.000000	0.000000
	-15.6492	90.8084	88.3262	-6.484369	-2.561215	-3.208141	0.000000	0.000000	0.000000	1.405499	1.887290	1.638759	4.484427	6.437918	5.295248	0.000000	0.000000	0.000000	0.000000	0.000000	0.000000	0.000000	0.000000	-4.734869	-28.564450	-5.100045	-23.784610	-12.392400	-13.647460	8.114533	0.000000	0.000000	0.000000	0.000000	0.000000	0.000000	0.000000	0.000000	0.000000	0.000000	0.000000	0.000000	0.000000	0.000000	0.000000	0.000000	0.000000	0.000000	0.000000	0.000000	0.000000	0.000000	0.000000	0.000000	0.000000	0.000000	0.000000	0.000000	0.000000	0.000000	0.000000	0.000000	0.000000	0.000000	0.000000	0.000000	0.000000	0.000000	0.000000	0.000000	0.000000	0.000000	0.000000	0.000000	0.000000	0.000000	0.000000	0.000000	0.000000	0.000000	3.044230	-29.701680	-1.128362	12.805300	-12.228420	16.899500	-4.673545	0.000000	0.000000	0.000000	0.000000	0.000000	0.000000	0.000000	0.000000	0.000000	0.000000	0.000000	0.000000	0.000000	0.000000	0.000000	0.000000	0.000000	0.000000	0.000000	0.000000	0.000000	0.000000	0.000000	0.000000	0.000000	0.000000	0.000000	0.000000	0.000000	0.000000	0.000000	0.000000	0.000000	0.000000	0.000000	0.000000	0.000000	0.000000	0.000000	0.000000	0.000000	0.000000	0.000000	0.000000	0.000000	0.000000	0.000000	0.000000	9.128981	8.423072	3.909274	10.184900	7.971278	-1.447628	-1.821459	-2.672142	-1.330433	-0.383780	0.000000	0.000000	8.621577	4.463406	3.007417	9.513978	4.196494	-0.678467	-8.520111	8.543349	4.902620	0.000000	0.000000	0.000000
	-15.8528	90.7622	88.6631	-6.464707	-2.443786	-3.359413	0.000000	0.000000	0.000000	1.388764	1.803079	1.679896	4.431723	6.159445	5.441513	0.000000	0.000000	0.000000	0.000000	0.000000	0.000000	0.000000	0.000000	-4.782125	-27.961810	-5.073741	-23.841170	-12.262090	-13.176460	8.389307	0.000000	0.000000	0.000000	0.000000	0.000000	0.000000	0.000000	0.000000	0.000000	0.000000	0.000000	0.000000	0.000000	0.000000	0.000000	0.000000	0.000000	0.000000	0.000000	0.000000	0.000000	0.000000	0.000000	0.000000	0.000000	0.000000	0.000000	0.000000	0.000000	0.000000	0.000000	0.000000	0.000000	0.000000	0.000000	0.000000	0.000000	0.000000	0.000000	0.000000	0.000000	0.000000	0.000000	0.000000	0.000000	0.000000	0.000000	0.000000	0.000000	0.000000	3.200964	-28.811710	-0.863901	13.574880	-12.611470	16.961710	-5.484418	0.000000	0.000000	0.000000	0.000000	0.000000	0.000000	0.000000	0.000000	0.000000	0.000000	0.000000	0.000000	0.000000	0.000000	0.000000	0.000000	0.000000	0.000000	0.000000	0.000000	0.000000	0.000000	0.000000	0.000000	0.000000	0.000000	0.000000	0.000000	0.000000	0.000000	0.000000	0.000000	0.000000	0.000000	0.000000	0.000000	0.000000	0.000000	0.000000	0.000000	0.000000	0.000000	0.000000	0.000000	0.000000	0.000000	0.000000	0.000000	9.282076	8.091380	4.157073	10.173410	7.623284	-1.381964	-1.877390	-2.645700	-1.319130	-0.475730	0.000000	0.000000	8.725434	7.056143	3.546252	9.366926	6.707028	-1.079770	-8.581590	8.176258	4.696826	0.000000	0.000000	0.000000
	-16.0453	90.7163	89.0463	-6.415148	-2.063088	-3.473013	0.000000	0.000000	0.000000	1.368328	1.731475	1.737127	4.363886	5.923812	5.640862	0.000000	0.000000	0.000000	0.000000	0.000000	0.000000	0.000000	0.000000	-4.915317	-27.336650	-4.904070	-24.082110	-12.376760	-13.464390	8.396202	0.000000	0.000000	0.000000	0.000000	0.000000	0.000000	0.000000	0.000000	0.000000	0.000000	0.000000	0.000000	0.000000	0.000000	0.000000	0.000000	0.000000	0.000000	0.000000	0.000000	0.000000	0.000000	0.000000	0.000000	0.000000	0.000000	0.000000	0.000000	0.000000	0.000000	0.000000	0.000000	0.000000	0.000000	0.000000	0.000000	0.000000	0.000000	0.000000	0.000000	0.000000	0.000000	0.000000	0.000000	0.000000	0.000000	0.000000	0.000000	0.000000	0.000000	3.390207	-27.871550	-1.049259	14.246940	-13.333160	17.371710	-6.490757	0.000000	0.000000	0.000000	0.000000	0.000000	0.000000	0.000000	0.000000	0.000000	0.000000	0.000000	0.000000	0.000000	0.000000	0.000000	0.000000	0.000000	0.000000	0.000000	0.000000	0.000000	0.000000	0.000000	0.000000	0.000000	0.000000	0.000000	0.000000	0.000000	0.000000	0.000000	0.000000	0.000000	0.000000	0.000000	0.000000	0.000000	0.000000	0.000000	0.000000	0.000000	0.000000	0.000000	0.000000	0.000000	0.000000	0.000000	0.000000	9.588306	7.879178	4.445485	9.934082	7.395387	-1.312606	-1.837921	-2.704926	-1.347545	-0.608901	0.000000	0.000000	8.634433	7.623648	3.935762	9.814198	7.240775	-1.224167	-8.856222	7.670485	4.430361	0.000000	0.000000	0.000000
	-16.2396	90.6883	89.4100	-6.396034	-1.531898	-3.483966	0.000000	0.000000	0.000000	1.367731	1.725591	1.750990	4.360378	5.905380	5.687567	0.000000	0.000000	0.000000	0.000000	0.000000	0.000000	0.000000	0.000000	-5.063615	-26.744010	-4.807181	-24.595000	-12.956460	-14.884480	8.152345	0.000000	0.000000	0.000000	0.000000	0.000000	0.000000	0.000000	0.000000	0.000000	0.000000	0.000000	0.000000	0.000000	0.000000	0.000000	0.000000	0.000000	0.000000	0.000000	0.000000	0.000000	0.000000	0.000000	0.000000	0.000000	0.000000	0.000000	0.000000	0.000000	0.000000	0.000000	0.000000	0.000000	0.000000	0.000000	0.000000	0.000000	0.000000	0.000000	0.000000	0.000000	0.000000	0.000000	0.000000	0.000000	0.000000	0.000000	0.000000	0.000000	0.000000	3.610879	-26.849740	-1.844353	14.747810	-13.738310	17.667700	-7.049577	0.000000	0.000000	0.000000	0.000000	0.000000	0.000000	0.000000	0.000000	0.000000	0.000000	0.000000	0.000000	0.000000	0.000000	0.000000	0.000000	0.000000	0.000000	0.000000	0.000000	0.000000	0.000000	0.000000	0.000000	0.000000	0.000000	0.000000	0.000000	0.000000	0.000000	0.000000	0.000000	0.000000	0.000000	0.000000	0.000000	0.000000	0.000000	0.000000	0.000000	0.000000	0.000000	0.000000	0.000000	0.000000	0.000000	0.000000	0.000000	10.033420	7.019115	4.607315	9.548285	6.536364	-1.126110	-1.829490	-2.939683	-1.464226	-0.600483	0.000000	0.000000	8.331302	6.332231	4.080276	10.962660	5.977444	-1.104908	-9.168748	7.108988	4.131373	0.000000	0.000000	0.000000
